<?xml version="1.0"?>
<svg xmlns="http://www.w3.org/2000/svg" id="Layer_1" enable-background="new 0 0 512 512" height="512px" viewBox="0 0 512 512" width="512px" class="">
  <g>
    <g>
      <g>
        <path d="m256 0c-141.159 0-256 114.841-256 256s114.841 256 256 256 256-114.841 256-256-114.841-256-256-256zm0 492c-130.131 0-236-105.869-236-236s105.869-236 236-236 236 105.869 236 236-105.869 236-236 236z" data-original="#000000" class="active-path" data-old_color="#000000" fill="#DDDDDD"/>
        <path d="m256 56c-61.174 0-118.174 27.455-156.385 75.324-3.445 4.317-2.739 10.609 1.577 14.054s10.608 2.739 14.054-1.577c34.394-43.088 85.697-67.801 140.754-67.801 99.252 0 180 80.748 180 180s-80.748 180-180 180-180-80.748-180-180c0-11.934 1.175-23.867 3.493-35.468 1.082-5.416-2.431-10.683-7.847-11.765-5.41-1.083-10.683 2.431-11.765 7.847-2.576 12.888-3.881 26.139-3.881 39.386 0 110.28 89.72 200 200 200s200-89.72 200-200-89.72-200-200-200z" data-original="#000000" class="active-path" data-old_color="#000000" fill="#DDDDDD"/>
        <path d="m152.187 129.844c-5.523 0-10 4.477-10 10v70.001c0 16.323 7.864 30.841 20 39.972v112.339c0 16.542 13.458 30 30 30s30-13.458 30-30v-112.338c12.136-9.131 20-23.65 20-39.973v-70.001c0-5.523-4.477-10-10-10s-10 4.477-10 10v50.002h-20v-50.002c0-5.523-4.477-10-10-10s-10 4.477-10 10v50.002h-20v-50.002c0-5.523-4.477-10-10-10zm50 232.313c0 5.514-4.486 10-10 10s-10-4.486-10-10v-103.318c3.232.659 6.576 1.006 10 1.006s6.768-.347 10-1.006zm-10-122.312c-16.542 0-29.999-13.458-30-29.999l60-.001c0 16.542-13.458 30-30 30z" data-original="#000000" class="active-path" data-old_color="#000000" fill="#DDDDDD"/>
        <path d="m318.937 392.156c16.542 0 30-13.458 30-30v-119.832c15.496-8.888 25-25.036 25-45.118 0-15.76-5.472-34.165-14.636-49.232-11.033-18.139-25.368-28.129-40.364-28.129s-29.331 9.99-40.364 28.129c-9.165 15.068-14.636 33.473-14.636 49.232 0 20.083 9.504 36.231 25 45.118v119.833c0 16.542 13.458 29.999 30 29.999zm10-29.999c0 5.514-4.486 10-10 10s-10-4.486-10-10v-113.05c3.215.477 6.548.738 10 .738s6.785-.26 10-.738zm-10-222.313c7.633 0 16.117 6.751 23.276 18.522 7.232 11.889 11.724 26.772 11.724 38.839 0 24.065-18.08 32.639-35 32.639s-35-8.574-35-32.639c0-23.988 17.637-57.361 35-57.361z" data-original="#000000" class="active-path" data-old_color="#000000" fill="#DDDDDD"/>
        <path d="m83.698 185.802h.007c5.523 0 9.997-4.477 9.997-10s-4.481-10-10.004-10-10 4.477-10 10 4.477 10 10 10z" data-original="#000000" class="active-path" data-old_color="#000000" fill="#DDDDDD"/>
      </g>
    </g>
  </g>
</svg>
