<?xml version="1.0" encoding="UTF-8" standalone="no"?>
<svg
   xmlns:dc="http://purl.org/dc/elements/1.1/"
   xmlns:cc="http://creativecommons.org/ns#"
   xmlns:rdf="http://www.w3.org/1999/02/22-rdf-syntax-ns#"
   xmlns:svg="http://www.w3.org/2000/svg"
   xmlns="http://www.w3.org/2000/svg"
   xmlns:sodipodi="http://sodipodi.sourceforge.net/DTD/sodipodi-0.dtd"
   xmlns:inkscape="http://www.inkscape.org/namespaces/inkscape"
   inkscape:version="1.0 (4035a4fb49, 2020-05-01)"
   sodipodi:docname="icons8-reaccionar-nativo.svg"
   id="svg10"
   version="1.1"
   height="100px"
   width="100px"
   viewBox="0 0 48 48">
  <metadata
     id="metadata16">
    <rdf:RDF>
      <cc:Work
         rdf:about="">
        <dc:format>image/svg+xml</dc:format>
        <dc:type
           rdf:resource="http://purl.org/dc/dcmitype/StillImage" />
      </cc:Work>
    </rdf:RDF>
  </metadata>
  <defs
     id="defs14" />
  <sodipodi:namedview
     inkscape:current-layer="svg10"
     inkscape:window-maximized="1"
     inkscape:window-y="-8"
     inkscape:window-x="-8"
     inkscape:cy="50"
     inkscape:cx="50"
     inkscape:zoom="8.5"
     showgrid="false"
     id="namedview12"
     inkscape:window-height="1017"
     inkscape:window-width="1920"
     inkscape:pageshadow="2"
     inkscape:pageopacity="0"
     guidetolerance="10"
     gridtolerance="10"
     objecttolerance="10"
     borderopacity="1"
     bordercolor="#666666"
     pagecolor="#ffffff" />
  <path
     style="fill:#ffffff"
     id="path2"
     d="M24,34C11.1,34,1,29.6,1,24c0-5.6,10.1-10,23-10c12.9,0,23,4.4,23,10C47,29.6,36.9,34,24,34z M24,16 c-12.6,0-21,4.1-21,8c0,3.9,8.4,8,21,8s21-4.1,21-8C45,20.1,36.6,16,24,16z"
     fill="#80deea" />
  <path
     style="fill:#ffffff"
     id="path4"
     d="M15.1,44.6c-1,0-1.8-0.2-2.6-0.7C7.6,41.1,8.9,30.2,15.3,19l0,0c3-5.2,6.7-9.6,10.3-12.4c3.9-3,7.4-3.9,9.8-2.5 c2.5,1.4,3.4,4.9,2.8,9.8c-0.6,4.6-2.6,10-5.6,15.2c-3,5.2-6.7,9.6-10.3,12.4C19.7,43.5,17.2,44.6,15.1,44.6z M32.9,5.4 c-1.6,0-3.7,0.9-6,2.7c-3.4,2.7-6.9,6.9-9.8,11.9l0,0c-6.3,10.9-6.9,20.3-3.6,22.2c1.7,1,4.5,0.1,7.6-2.3c3.4-2.7,6.9-6.9,9.8-11.9 c2.9-5,4.8-10.1,5.4-14.4c0.5-4-0.1-6.8-1.8-7.8C34,5.6,33.5,5.4,32.9,5.4z"
     fill="#80deea" />
  <path
     style="fill:#ffffff"
     id="path6"
     d="M33,44.6c-5,0-12.2-6.1-17.6-15.6C8.9,17.8,7.6,6.9,12.5,4.1l0,0C17.4,1.3,26.2,7.8,32.7,19 c3,5.2,5,10.6,5.6,15.2c0.7,4.9-0.3,8.3-2.8,9.8C34.7,44.4,33.9,44.6,33,44.6z M13.5,5.8c-3.3,1.9-2.7,11.3,3.6,22.2 c6.3,10.9,14.1,16.1,17.4,14.2c1.7-1,2.3-3.8,1.8-7.8c-0.6-4.3-2.5-9.4-5.4-14.4C24.6,9.1,16.8,3.9,13.5,5.8L13.5,5.8z"
     fill="#80deea" />
  <circle
     style="fill:#ffffff"
     id="circle8"
     fill="#80deea"
     r="4"
     cy="24"
     cx="24" />
</svg>
